<?xml version="1.0" encoding="UTF-8"?>
<svg id="_图层_1" data-name="图层_1" xmlns="http://www.w3.org/2000/svg" xmlns:xlink="http://www.w3.org/1999/xlink" version="1.1" viewBox="0 0 35.93 32">
  <!-- Generator: Adobe Illustrator 29.5.1, SVG Export Plug-In . SVG Version: 2.1.0 Build 141)  -->
  <defs>
    <style>
      .st0 {
        fill: url(#_未命名的渐变_2);
      }

      .st1 {
        fill: url(#_未命名的渐变_4);
      }

      .st2 {
        fill: #f4cf1e;
        fill-rule: evenodd;
      }

      .st3 {
        fill: url(#_未命名的渐变_41);
      }

      .st4 {
        fill: url(#_未命名的渐变_42);
      }
    </style>
    <linearGradient id="_未命名的渐变_2" data-name="未命名的渐变 2" x1="17.97" y1="33.34" x2="17.97" y2="12.37" gradientTransform="translate(0 34) scale(1 -1)" gradientUnits="userSpaceOnUse">
      <stop offset="0" stop-color="#6fa8db"/>
      <stop offset="1" stop-color="#4265ae"/>
    </linearGradient>
    <linearGradient id="_未命名的渐变_4" data-name="未命名的渐变 4" x1="11.5" y1="12.04" x2="11.5" y2="2.85" gradientTransform="translate(0 34) scale(1 -1)" gradientUnits="userSpaceOnUse">
      <stop offset="0" stop-color="#8ed1e9"/>
      <stop offset="1" stop-color="#3b5ea9"/>
    </linearGradient>
    <linearGradient id="_未命名的渐变_41" data-name="未命名的渐变 4" x1="20.11" y1="10.5" x2="20.11" y2="2.32" xlink:href="#_未命名的渐变_4"/>
    <linearGradient id="_未命名的渐变_42" data-name="未命名的渐变 4" x1="26.84" y1="14.04" x2="26.84" y2="4.28" xlink:href="#_未命名的渐变_4"/>
  </defs>
  <path class="st0" d="M15.06,8.57c-1.46-.63-1.16-3.73-1.15-5.49-1.82,1.23-4.26,4.38-5.67,6.3-1.35,1.83-4.03,5.01-4.24,7.99-.3,4.15,3.1,5.23,7,5.11,1.82-.06,3.53-.47,4.89-1.22,1.75-.97,1.8-1.62,2.71-3.38.51.83.63,2.12,2.53,3.05,4.67,2.29,10.74-.14,10.81-4.73.1-6.32-6.42-7.16-8.01-9.05-.39-.46-.72-1.19-.99-1.88-.16-.4-.23-.6-.33-1.01-.02-.06-.13-.54-.13-.54l-.41-.6c-.64,1.11-1.3,2.17-1.71,3.69-2.45-.46-1.69-4.59-1.53-6.58-1.36.44-2.09,1.98-2.61,3.46-.41,1.18-.9,4.35-1.17,4.89h0Z"/>
  <path class="st1" d="M18.59,29.71c-1.92-.28-3.49-.8-4.4-1.84-1.43-1.64-1.07-2.43-1.66-4.62-2.1-.3-4.04.24-6.52-1.05-.84-.44-.92-.85-1.6-1.18.22,1.64.86,3.39,1.53,4.8.32.67.7,1.31,1.15,1.89,1.53,1.97,3.52,3.22,6.28,3.23,1.63,0,4.14-.42,5.21-1.23h.01Z"/>
  <path class="st3" d="M21.91,23.73c-.06,3.65-1.65,6.27-4.98,7.15-1.51.4-2.41.18-3.84.4,3.46,1.13,7.19.38,9.48-1.51,2.34-1.92,3.27-3.7,4.56-7.28-.37.08-1.41.69-2.15.91-1.1.34-1.86.39-3.07.32h0Z"/>
  <path class="st4" d="M28.06,21.93c-1.31,6.07-5.15,7.79-5.96,8.79,5.27-.91,9.8-7.44,9.46-11.43-1.43,1.8-2.4,1.96-3.5,2.64h0Z"/>
  <path class="st2" d="M24.49,21.21c3.59,0,6.22-1.83,6.74-4.91-.69.4-1.27,1.06-1.88,1.52-6.84,5.1-10.54-1.66-8.24-3.51,1.56-1.26,3.49-.14,2.24,2.48,1.7-.19,2.12-3.05.8-4.33-3.25-3.13-7.2,1.78-4.33,6.35.96,1.53,2.13,2.4,4.67,2.4h0Z"/>
  <path class="st2" d="M13.68,16.82c-.27-.81-.72-1.65-.14-2.48.48-.68,1.86-.91,2.7-.22,1.85,1.51-.67,7.07-6.76,5.75-1.32-.29-4.19-1.45-4.84-2.1-.4,4.36,9.91,5.92,12.74.73,1.22-2.24,1.2-6.58-1.83-6.93-3.97-.45-4.37,4.72-1.87,5.25h0Z"/>
</svg>